<?xml version="1.0" encoding="utf-8"?>
<!-- Generator: Adobe Illustrator 15.0.0, SVG Export Plug-In . SVG Version: 6.00 Build 0)  -->
<!DOCTYPE svg PUBLIC "-//W3C//DTD SVG 1.1//EN" "http://www.w3.org/Graphics/SVG/1.1/DTD/svg11.dtd">
<svg version="1.1" id="Layer_1" xmlns="http://www.w3.org/2000/svg" xmlns:xlink="http://www.w3.org/1999/xlink" x="0px" y="0px"
	 width="362.835px" height="221.1px" viewBox="0 0 362.835 221.1" enable-background="new 0 0 362.835 221.1" xml:space="preserve">
<polygon fill="#FFFFFF" stroke="#000000" stroke-miterlimit="10" points="42.52,221.102 320.317,221.102 320.317,178.583 
	362.835,178.583 362.835,42.52 320.317,42.52 320.317,0 42.52,0 42.52,42.52 0,42.52 0,178.583 42.52,178.583 "/>
<path fill="#FFFFFF" stroke="#000000" stroke-miterlimit="10" d="M24.094,72.284c0,3.131-2.538,5.669-5.669,5.669l0,0
	c-3.131,0-5.669-2.538-5.669-5.669v-11.34c0-3.131,2.538-5.669,5.669-5.669l0,0c3.131,0,5.669,2.538,5.669,5.669V72.284z"/>
<path fill="#FFFFFF" stroke="#000000" stroke-miterlimit="10" d="M24.094,160.157c0,3.132-2.538,5.67-5.669,5.67l0,0
	c-3.131,0-5.669-2.538-5.669-5.67v-11.339c0-3.131,2.538-5.67,5.669-5.67l0,0c3.131,0,5.669,2.539,5.669,5.67V160.157z"/>
<path fill="#FFFFFF" stroke="#000000" stroke-miterlimit="10" d="M290.292,24.094c-3.132,0-5.67-2.538-5.67-5.668l0,0
	c0-3.132,2.538-5.67,5.67-5.67h11.338c3.131,0,5.67,2.538,5.67,5.67l0,0c0,3.131-2.539,5.668-5.67,5.668H290.292z"/>
<path fill="#FFFFFF" stroke="#000000" stroke-miterlimit="10" d="M60.685,24.094c-3.132,0-5.67-2.538-5.67-5.668l0,0
	c0-3.132,2.538-5.67,5.67-5.67h11.338c3.131,0,5.67,2.538,5.67,5.67l0,0c0,3.131-2.539,5.668-5.67,5.668H60.685z"/>
<path fill="#FFFFFF" stroke="#000000" stroke-miterlimit="10" d="M338.22,148.819c0-3.132,2.537-5.67,5.668-5.67l0,0
	c3.133,0,5.671,2.539,5.671,5.67v11.339c0,3.132-2.538,5.67-5.671,5.67l0,0c-3.131,0-5.668-2.538-5.668-5.67V148.819z"/>
<path fill="#FFFFFF" stroke="#000000" stroke-miterlimit="10" d="M338.22,60.946c0-3.132,2.538-5.67,5.67-5.67l0,0
	c3.131,0,5.669,2.538,5.669,5.67v11.339c0,3.131-2.538,5.67-5.669,5.67l0,0c-3.132,0-5.67-2.539-5.67-5.67V60.946z"/>
<path fill="#FFFFFF" stroke="#000000" stroke-miterlimit="10" d="M72.022,197.009c3.132,0,5.67,2.538,5.67,5.669l0,0
	c0,3.132-2.538,5.67-5.67,5.67H60.685c-3.131,0-5.67-2.538-5.67-5.67l0,0c0-3.131,2.539-5.669,5.67-5.669H72.022z"/>
<path fill="#FFFFFF" stroke="#000000" stroke-miterlimit="10" d="M301.629,197.009c3.132,0,5.67,2.538,5.67,5.669l0,0
	c0,3.132-2.538,5.67-5.67,5.67h-11.338c-3.131,0-5.67-2.538-5.67-5.67l0,0c0-3.131,2.539-5.669,5.67-5.669H301.629z"/>
</svg>
