<?xml version="1.0" encoding="utf-8"?>
<!-- Generator: Adobe Illustrator 15.0.0, SVG Export Plug-In . SVG Version: 6.00 Build 0)  -->
<!DOCTYPE svg PUBLIC "-//W3C//DTD SVG 1.1//EN" "http://www.w3.org/Graphics/SVG/1.1/DTD/svg11.dtd">
<svg version="1.1" id="Layer_1" xmlns="http://www.w3.org/2000/svg" xmlns:xlink="http://www.w3.org/1999/xlink" x="0px" y="0px"
	 width="504.567px" height="221.1px" viewBox="0 0 504.567 221.1" enable-background="new 0 0 504.567 221.1" xml:space="preserve">
<polygon fill="#FFFFFF" stroke="#000000" stroke-miterlimit="10" points="42.52,221.102 462.049,221.102 462.049,178.583 
	504.567,178.583 504.567,42.52 462.049,42.52 462.049,0 42.52,0 42.52,42.52 0,42.52 0,178.583 42.52,178.583 "/>
<path fill="#FFFFFF" stroke="#000000" stroke-miterlimit="10" d="M24.094,72.284c0,3.131-2.538,5.669-5.669,5.669l0,0
	c-3.131,0-5.669-2.538-5.669-5.669V60.944c0-3.131,2.538-5.669,5.669-5.669l0,0c3.131,0,5.669,2.538,5.669,5.669V72.284z"/>
<path fill="#FFFFFF" stroke="#000000" stroke-miterlimit="10" d="M24.094,160.157c0,3.132-2.538,5.67-5.669,5.67l0,0
	c-3.131,0-5.669-2.538-5.669-5.67v-11.34c0-3.131,2.538-5.67,5.669-5.67l0,0c3.131,0,5.669,2.539,5.669,5.67V160.157z"/>
<path fill="#FFFFFF" stroke="#000000" stroke-miterlimit="10" d="M432.024,24.094c-3.133,0-5.67-2.538-5.67-5.668l0,0
	c0-3.132,2.537-5.67,5.67-5.67h11.338c3.131,0,5.67,2.538,5.67,5.67l0,0c0,3.131-2.539,5.668-5.67,5.668H432.024z"/>
<path fill="#FFFFFF" stroke="#000000" stroke-miterlimit="10" d="M60.685,24.094c-3.132,0-5.67-2.538-5.67-5.668l0,0
	c0-3.132,2.538-5.67,5.67-5.67h11.338c3.131,0,5.67,2.538,5.67,5.67l0,0c0,3.131-2.539,5.668-5.67,5.668H60.685z"/>
<path fill="#FFFFFF" stroke="#000000" stroke-miterlimit="10" d="M479.952,148.819c0-3.132,2.537-5.67,5.668-5.67l0,0
	c3.133,0,5.67,2.539,5.67,5.67v11.34c0,3.132-2.537,5.67-5.67,5.67l0,0c-3.131,0-5.668-2.538-5.668-5.67V148.819z"/>
<path fill="#FFFFFF" stroke="#000000" stroke-miterlimit="10" d="M479.952,60.946c0-3.132,2.537-5.67,5.67-5.67l0,0
	c3.131,0,5.668,2.538,5.668,5.67v11.34c0,3.131-2.537,5.67-5.668,5.67l0,0c-3.133,0-5.67-2.539-5.67-5.67V60.946z"/>
<path fill="#FFFFFF" stroke="#000000" stroke-miterlimit="10" d="M72.022,197.009c3.132,0,5.67,2.538,5.67,5.669l0,0
	c0,3.132-2.538,5.67-5.67,5.67H60.685c-3.131,0-5.67-2.538-5.67-5.67l0,0c0-3.131,2.539-5.669,5.67-5.669H72.022z"/>
<path fill="#FFFFFF" stroke="#000000" stroke-miterlimit="10" d="M443.36,197.009c3.133,0,5.67,2.538,5.67,5.669l0,0
	c0,3.132-2.537,5.67-5.67,5.67h-11.338c-3.131,0-5.67-2.538-5.67-5.67l0,0c0-3.131,2.539-5.669,5.67-5.669H443.36z"/>
</svg>
