<?xml version="1.0" encoding="utf-8"?>
<!-- Generator: Adobe Illustrator 15.0.0, SVG Export Plug-In . SVG Version: 6.00 Build 0)  -->
<!DOCTYPE svg PUBLIC "-//W3C//DTD SVG 1.1//EN" "http://www.w3.org/Graphics/SVG/1.1/DTD/svg11.dtd">
<svg version="1.1" id="Layer_1" xmlns="http://www.w3.org/2000/svg" xmlns:xlink="http://www.w3.org/1999/xlink" x="0px" y="0px"
	 width="788.031px" height="788.032px" viewBox="0 0 788.031 788.032" enable-background="new 0 0 788.031 788.032"
	 xml:space="preserve">
<polygon fill="#FFFFFF" stroke="#000000" stroke-miterlimit="10" points="42.52,788.032 745.517,788.032 745.517,745.512 
	788.031,745.512 788.031,42.52 745.517,42.52 745.517,0 42.52,0 42.52,42.52 0,42.52 0,745.512 42.52,745.512 "/>
<path fill="#FFFFFF" stroke="#000000" stroke-miterlimit="10" d="M24.094,72.284c0,3.131-2.538,5.669-5.669,5.669l0,0
	c-3.131,0-5.669-2.538-5.669-5.669v-11.34c0-3.131,2.538-5.669,5.669-5.669l0,0c3.131,0,5.669,2.538,5.669,5.669V72.284z"/>
<path fill="#FFFFFF" stroke="#000000" stroke-miterlimit="10" d="M24.094,727.088c0,3.131-2.538,5.67-5.669,5.67l0,0
	c-3.131,0-5.669-2.539-5.669-5.67v-11.344c0-3.131,2.538-5.67,5.669-5.67l0,0c3.131,0,5.669,2.539,5.669,5.67V727.088z"/>
<path fill="#FFFFFF" stroke="#000000" stroke-miterlimit="10" d="M715.49,24.094c-3.136,0-5.672-2.538-5.672-5.668l0,0
	c0-3.132,2.536-5.67,5.672-5.67h11.338c3.131,0,5.67,2.538,5.67,5.67l0,0c0,3.131-2.539,5.668-5.67,5.668H715.49z"/>
<path fill="#FFFFFF" stroke="#000000" stroke-miterlimit="10" d="M60.685,24.094c-3.132,0-5.67-2.538-5.67-5.668l0,0
	c0-3.132,2.538-5.67,5.67-5.67h11.338c3.131,0,5.67,2.538,5.67,5.67l0,0c0,3.131-2.539,5.668-5.67,5.668H60.685z"/>
<path fill="#FFFFFF" stroke="#000000" stroke-miterlimit="10" d="M763.416,715.749c0-3.133,2.537-5.67,5.671-5.67l0,0
	c3.133,0,5.67,2.539,5.67,5.67v11.342c0,3.133-2.537,5.67-5.67,5.67l0,0c-3.134,0-5.671-2.537-5.671-5.67V715.749z"/>
<path fill="#FFFFFF" stroke="#000000" stroke-miterlimit="10" d="M763.416,60.946c0-3.132,2.537-5.67,5.673-5.67l0,0
	c3.131,0,5.668,2.538,5.668,5.67v11.342c0,3.131-2.537,5.67-5.668,5.67l0,0c-3.136,0-5.673-2.539-5.673-5.67V60.946z"/>
<path fill="#FFFFFF" stroke="#000000" stroke-miterlimit="10" d="M72.022,763.938c3.132,0,5.67,2.537,5.67,5.67l0,0
	c0,3.131-2.538,5.67-5.67,5.67H60.685c-3.131,0-5.67-2.539-5.67-5.67l0,0c0-3.131,2.539-5.67,5.67-5.67H72.022z"/>
<path fill="#FFFFFF" stroke="#000000" stroke-miterlimit="10" d="M726.824,763.938c3.133,0,5.67,2.537,5.67,5.67l0,0
	c0,3.131-2.537,5.67-5.67,5.67h-11.336c-3.134,0-5.672-2.539-5.672-5.67l0,0c0-3.131,2.538-5.67,5.672-5.67H726.824z"/>
</svg>
