<?xml version="1.0" encoding="utf-8"?>
<!-- Generator: Adobe Illustrator 15.0.0, SVG Export Plug-In . SVG Version: 6.00 Build 0)  -->
<!DOCTYPE svg PUBLIC "-//W3C//DTD SVG 1.1//EN" "http://www.w3.org/Graphics/SVG/1.1/DTD/svg11.dtd">
<svg version="1.1" id="Layer_1" xmlns="http://www.w3.org/2000/svg" xmlns:xlink="http://www.w3.org/1999/xlink" x="0px" y="0px"
	 width="646.299px" height="504.567px" viewBox="0 0 646.299 504.567" enable-background="new 0 0 646.299 504.567"
	 xml:space="preserve">
<polygon fill="#FFFFFF" stroke="#000000" stroke-miterlimit="10" points="42.52,504.567 603.784,504.567 603.784,462.048 
	646.299,462.048 646.299,42.52 603.784,42.52 603.784,0 42.52,0 42.52,42.52 0,42.52 0,462.048 42.52,462.048 "/>
<path fill="#FFFFFF" stroke="#000000" stroke-miterlimit="10" d="M24.094,72.284c0,3.131-2.538,5.669-5.669,5.669l0,0
	c-3.131,0-5.669-2.538-5.669-5.669v-11.34c0-3.131,2.538-5.669,5.669-5.669l0,0c3.131,0,5.669,2.538,5.669,5.669V72.284z"/>
<path fill="#FFFFFF" stroke="#000000" stroke-miterlimit="10" d="M24.094,443.623c0,3.132-2.538,5.67-5.669,5.67l0,0
	c-3.131,0-5.669-2.538-5.669-5.67V432.28c0-3.131,2.538-5.67,5.669-5.67l0,0c3.131,0,5.669,2.539,5.669,5.67V443.623z"/>
<path fill="#FFFFFF" stroke="#000000" stroke-miterlimit="10" d="M573.758,24.094c-3.135,0-5.672-2.538-5.672-5.668l0,0
	c0-3.132,2.537-5.67,5.672-5.67h11.338c3.131,0,5.67,2.538,5.67,5.67l0,0c0,3.131-2.539,5.668-5.67,5.668H573.758z"/>
<path fill="#FFFFFF" stroke="#000000" stroke-miterlimit="10" d="M60.685,24.094c-3.132,0-5.67-2.538-5.67-5.668l0,0
	c0-3.132,2.538-5.67,5.67-5.67h11.338c3.131,0,5.67,2.538,5.67,5.67l0,0c0,3.131-2.539,5.668-5.67,5.668H60.685z"/>
<path fill="#FFFFFF" stroke="#000000" stroke-miterlimit="10" d="M621.684,432.284c0-3.133,2.537-5.67,5.671-5.67l0,0
	c3.133,0,5.67,2.539,5.67,5.67v11.342c0,3.132-2.537,5.67-5.67,5.67l0,0c-3.134,0-5.671-2.538-5.671-5.67V432.284z"/>
<path fill="#FFFFFF" stroke="#000000" stroke-miterlimit="10" d="M621.684,60.946c0-3.132,2.537-5.67,5.673-5.67l0,0
	c3.131,0,5.668,2.538,5.668,5.67v11.342c0,3.131-2.537,5.67-5.668,5.67l0,0c-3.136,0-5.673-2.539-5.673-5.67V60.946z"/>
<path fill="#FFFFFF" stroke="#000000" stroke-miterlimit="10" d="M72.022,480.473c3.132,0,5.67,2.538,5.67,5.67l0,0
	c0,3.131-2.538,5.67-5.67,5.67H60.685c-3.131,0-5.67-2.539-5.67-5.67l0,0c0-3.131,2.539-5.67,5.67-5.67H72.022z"/>
<path fill="#FFFFFF" stroke="#000000" stroke-miterlimit="10" d="M585.092,480.473c3.133,0,5.67,2.538,5.67,5.67l0,0
	c0,3.131-2.537,5.67-5.67,5.67h-11.336c-3.133,0-5.672-2.539-5.672-5.67l0,0c0-3.131,2.539-5.67,5.672-5.67H585.092z"/>
</svg>
