<?xml version="1.0" encoding="utf-8"?>
<!-- Generator: Adobe Illustrator 15.0.0, SVG Export Plug-In . SVG Version: 6.00 Build 0)  -->
<!DOCTYPE svg PUBLIC "-//W3C//DTD SVG 1.1//EN" "http://www.w3.org/Graphics/SVG/1.1/DTD/svg11.dtd">
<svg version="1.1" id="Layer_1" xmlns="http://www.w3.org/2000/svg" xmlns:xlink="http://www.w3.org/1999/xlink" x="0px" y="0px"
	 width="504.567px" height="362.835px" viewBox="0 0 504.567 362.835" enable-background="new 0 0 504.567 362.835"
	 xml:space="preserve">
<polygon fill="#FFFFFF" stroke="#000000" stroke-miterlimit="10" points="42.52,362.835 462.052,362.835 462.052,320.317 
	504.567,320.317 504.567,42.52 462.052,42.52 462.052,0 42.52,0 42.52,42.52 0,42.52 0,320.317 42.52,320.317 "/>
<path fill="#FFFFFF" stroke="#000000" stroke-miterlimit="10" d="M24.094,72.284c0,3.131-2.538,5.669-5.669,5.669l0,0
	c-3.131,0-5.669-2.538-5.669-5.669v-11.34c0-3.131,2.538-5.669,5.669-5.669l0,0c3.131,0,5.669,2.538,5.669,5.669V72.284z"/>
<path fill="#FFFFFF" stroke="#000000" stroke-miterlimit="10" d="M24.094,301.891c0,3.132-2.538,5.67-5.669,5.67l0,0
	c-3.131,0-5.669-2.538-5.669-5.67v-11.343c0-3.131,2.538-5.67,5.669-5.67l0,0c3.131,0,5.669,2.539,5.669,5.67V301.891z"/>
<path fill="#FFFFFF" stroke="#000000" stroke-miterlimit="10" d="M432.025,24.094c-3.134,0-5.67-2.538-5.67-5.668l0,0
	c0-3.132,2.536-5.67,5.67-5.67h11.338c3.131,0,5.67,2.538,5.67,5.67l0,0c0,3.131-2.539,5.668-5.67,5.668H432.025z"/>
<path fill="#FFFFFF" stroke="#000000" stroke-miterlimit="10" d="M60.685,24.094c-3.132,0-5.67-2.538-5.67-5.668l0,0
	c0-3.132,2.538-5.67,5.67-5.67h11.338c3.131,0,5.67,2.538,5.67,5.67l0,0c0,3.131-2.539,5.668-5.67,5.668H60.685z"/>
<path fill="#FFFFFF" stroke="#000000" stroke-miterlimit="10" d="M479.952,290.552c0-3.133,2.537-5.67,5.669-5.67l0,0
	c3.133,0,5.67,2.539,5.67,5.67v11.342c0,3.132-2.536,5.67-5.67,5.67l0,0c-3.132,0-5.669-2.538-5.669-5.67V290.552z"/>
<path fill="#FFFFFF" stroke="#000000" stroke-miterlimit="10" d="M479.952,60.946c0-3.132,2.537-5.67,5.671-5.67l0,0
	c3.131,0,5.668,2.538,5.668,5.67v11.342c0,3.131-2.537,5.67-5.668,5.67l0,0c-3.134,0-5.671-2.539-5.671-5.67V60.946z"/>
<path fill="#FFFFFF" stroke="#000000" stroke-miterlimit="10" d="M72.022,338.742c3.132,0,5.67,2.538,5.67,5.67l0,0
	c0,3.131-2.538,5.67-5.67,5.67H60.685c-3.131,0-5.67-2.539-5.67-5.67l0,0c0-3.132,2.539-5.67,5.67-5.67H72.022z"/>
<path fill="#FFFFFF" stroke="#000000" stroke-miterlimit="10" d="M443.36,338.742c3.133,0,5.67,2.538,5.67,5.67l0,0
	c0,3.131-2.537,5.67-5.67,5.67h-11.337c-3.132,0-5.67-2.539-5.67-5.67l0,0c0-3.132,2.538-5.67,5.67-5.67H443.36z"/>
</svg>
